<svg xmlns="http://www.w3.org/2000/svg" width="1920" height="1080"><path d="M-253,-199L-102,-183L414,-189Z" fill="#de453a" stroke="#de453a" stroke-width="1.51"/><path d="M537,1250L15,1309L759,1266Z" fill="#faa86a" stroke="#faa86a" stroke-width="1.51"/><path d="M759,1266L15,1309L894,1270Z" fill="#fdb274" stroke="#fdb274" stroke-width="1.51"/><path d="M-253,-199L414,-189L1240,-208Z" fill="#ec705f" stroke="#ec705f" stroke-width="1.51"/><path d="M414,-189L766,-141L1240,-208Z" fill="#f59181" stroke="#f59181" stroke-width="1.51"/><path d="M894,1270L15,1309L1524,1312Z" fill="#ffc68b" stroke="#ffc68b" stroke-width="1.51"/><path d="M1166,1264L894,1270L1524,1312Z" fill="#ffcb87" stroke="#ffcb87" stroke-width="1.51"/><path d="M1240,-208L1573,-172L1888,-177Z" fill="#f0875d" stroke="#f0875d" stroke-width="1.51"/><path d="M1825,1208L1680,1285L1949,1201Z" fill="#fcb858" stroke="#fcb858" stroke-width="1.51"/><path d="M2054,266L2072,404L2104,189Z" fill="#fdb57a" stroke="#fdb57a" stroke-width="1.51"/><path d="M2072,404L2037,469L2116,674Z" fill="#ffd39d" stroke="#ffd39d" stroke-width="1.51"/><path d="M2037,469L2043,663L2116,674Z" fill="#ffd399" stroke="#ffd399" stroke-width="1.51"/><path d="M2104,189L2072,404L2116,674Z" fill="#ffc58d" stroke="#ffc58d" stroke-width="1.51"/><path d="M1949,1201L1680,1285L2130,1190Z" fill="#fbb450" stroke="#fbb450" stroke-width="1.51"/><path d="M2117,-158L1946,-112L2141,67Z" fill="#f08546" stroke="#f08546" stroke-width="1.51"/><path d="M1946,-112L1925,17L2141,67Z" fill="#f38f54" stroke="#f38f54" stroke-width="1.51"/><path d="M2104,189L2116,674L2141,67Z" fill="#feb67a" stroke="#feb67a" stroke-width="1.51"/><path d="M2141,67L2116,674L2146,778Z" fill="#ffd097" stroke="#ffd097" stroke-width="1.51"/><path d="M1941,897L1940,1115L2150,887Z" fill="#fec06d" stroke="#fec06d" stroke-width="1.51"/><path d="M2150,887L1940,1115L2172,1121Z" fill="#fdb95c" stroke="#fdb95c" stroke-width="1.51"/><path d="M1940,1115L2130,1190L2172,1121Z" fill="#fbb34e" stroke="#fbb34e" stroke-width="1.51"/><path d="M2146,778L2150,887L2172,1121Z" fill="#fcbd65" stroke="#fcbd65" stroke-width="1.51"/><path d="M2141,67L2146,778L2172,1121Z" fill="#ffcc8b" stroke="#ffcc8b" stroke-width="1.51"/><path d="M2116,674L2043,663L2146,778Z" fill="#ffcc88" stroke="#ffcc88" stroke-width="1.51"/><path d="M2146,778L1961,839L2150,887Z" fill="#fec578" stroke="#fec578" stroke-width="1.51"/><path d="M1961,839L1941,897L2150,887Z" fill="#ffc579" stroke="#ffc579" stroke-width="1.51"/><path d="M1938,166L2104,189L2141,67Z" fill="#f8a265" stroke="#f8a265" stroke-width="1.51"/><path d="M2043,663L1961,839L2146,778Z" fill="#ffca85" stroke="#ffca85" stroke-width="1.51"/><path d="M1925,17L1938,166L2141,67Z" fill="#f79c62" stroke="#f79c62" stroke-width="1.51"/><path d="M1888,-177L1946,-112L2117,-158Z" fill="#ed7d41" stroke="#ed7d41" stroke-width="1.51"/><path d="M1940,1115L1949,1201L2130,1190Z" fill="#fcb451" stroke="#fcb451" stroke-width="1.51"/><path d="M2027,239L2054,266L2104,189Z" fill="#fbae73" stroke="#fbae73" stroke-width="1.51"/><path d="M1938,166L2027,239L2104,189Z" fill="#faaa71" stroke="#faaa71" stroke-width="1.51"/><path d="M1867,218L1800,282L2027,239Z" fill="#feb582" stroke="#feb582" stroke-width="1.51"/><path d="M2037,469L1863,491L2043,663Z" fill="#ffd9a9" stroke="#ffd9a9" stroke-width="1.51"/><path d="M2027,239L1800,282L2072,404Z" fill="#ffbb86" stroke="#ffbb86" stroke-width="1.51"/><path d="M1800,282L1863,491L2072,404Z" fill="#ffc898" stroke="#ffc898" stroke-width="1.51"/><path d="M1863,491L2037,469L2072,404Z" fill="#ffce9a" stroke="#ffce9a" stroke-width="1.51"/><path d="M2054,266L2027,239L2072,404Z" fill="#feb77f" stroke="#feb77f" stroke-width="1.51"/><path d="M1860,786L1961,839L2043,663Z" fill="#ffce8d" stroke="#ffce8d" stroke-width="1.51"/><path d="M1863,491L1772,586L2043,663Z" fill="#ffdaaa" stroke="#ffdaaa" stroke-width="1.51"/><path d="M1772,586L1860,786L2043,663Z" fill="#ffd59d" stroke="#ffd59d" stroke-width="1.51"/><path d="M1938,166L1867,218L2027,239Z" fill="#fcaf79" stroke="#fcaf79" stroke-width="1.51"/><path d="M1776,926L1773,1133L1940,1115Z" fill="#ffc170" stroke="#ffc170" stroke-width="1.51"/><path d="M1776,926L1940,1115L1941,897Z" fill="#ffc476" stroke="#ffc476" stroke-width="1.51"/><path d="M1785,-62L1925,17L1946,-112Z" fill="#f38e57" stroke="#f38e57" stroke-width="1.51"/><path d="M1860,786L1941,897L1961,839Z" fill="#ffca85" stroke="#ffca85" stroke-width="1.51"/><path d="M1925,17L1727,147L1938,166Z" fill="#f9a471" stroke="#f9a471" stroke-width="1.51"/><path d="M1727,147L1867,218L1938,166Z" fill="#fcae7d" stroke="#fcae7d" stroke-width="1.51"/><path d="M1940,1115L1825,1208L1949,1201Z" fill="#fdb859" stroke="#fdb859" stroke-width="1.51"/><path d="M1772,586L1724,678L1860,786Z" fill="#ffd8a6" stroke="#ffd8a6" stroke-width="1.51"/><path d="M1888,-177L1785,-62L1946,-112Z" fill="#f0864f" stroke="#f0864f" stroke-width="1.51"/><path d="M1773,1133L1825,1208L1940,1115Z" fill="#febb61" stroke="#febb61" stroke-width="1.51"/><path d="M1860,786L1776,926L1941,897Z" fill="#ffcb87" stroke="#ffcb87" stroke-width="1.51"/><path d="M1785,-62L1727,147L1925,17Z" fill="#f79c6a" stroke="#f79c6a" stroke-width="1.51"/><path d="M1800,282L1701,359L1863,491Z" fill="#ffcb9f" stroke="#ffcb9f" stroke-width="1.51"/><path d="M1699,-70L1785,-62L1888,-177Z" fill="#f28b58" stroke="#f28b58" stroke-width="1.51"/><path d="M1633,-105L1699,-70L1888,-177Z" fill="#f18a59" stroke="#f18a59" stroke-width="1.51"/><path d="M1573,-172L1633,-105L1888,-177Z" fill="#f08758" stroke="#f08758" stroke-width="1.51"/><path d="M1687,804L1776,926L1860,786Z" fill="#ffd092" stroke="#ffd092" stroke-width="1.51"/><path d="M1727,147L1800,282L1867,218Z" fill="#fdb586" stroke="#fdb586" stroke-width="1.51"/><path d="M1724,678L1687,804L1860,786Z" fill="#ffd59f" stroke="#ffd59f" stroke-width="1.51"/><path d="M1701,359L1772,586L1863,491Z" fill="#ffd8b0" stroke="#ffd8b0" stroke-width="1.51"/><path d="M1701,359L1592,441L1772,586Z" fill="#ffdab5" stroke="#ffdab5" stroke-width="1.51"/><path d="M1638,1067L1773,1133L1776,926Z" fill="#ffc67b" stroke="#ffc67b" stroke-width="1.51"/><path d="M1699,-70L1727,147L1785,-62Z" fill="#f69b6c" stroke="#f69b6c" stroke-width="1.51"/><path d="M1773,1133L1680,1285L1825,1208Z" fill="#fdbb61" stroke="#fdbb61" stroke-width="1.51"/><path d="M1680,901L1638,1067L1776,926Z" fill="#ffcb88" stroke="#ffcb88" stroke-width="1.51"/><path d="M1687,804L1680,901L1776,926Z" fill="#ffcf92" stroke="#ffcf92" stroke-width="1.51"/><path d="M1727,147L1701,359L1800,282Z" fill="#febd92" stroke="#febd92" stroke-width="1.51"/><path d="M1638,1067L1680,1285L1773,1133Z" fill="#fec06d" stroke="#fec06d" stroke-width="1.51"/><path d="M1592,441L1724,678L1772,586Z" fill="#ffe2bd" stroke="#ffe2bd" stroke-width="1.51"/><path d="M1633,-105L1479,83L1699,-70Z" fill="#f59b71" stroke="#f59b71" stroke-width="1.51"/><path d="M1592,441L1456,564L1724,678Z" fill="#ffe6c6" stroke="#ffe6c6" stroke-width="1.51"/><path d="M1504,794L1687,804L1724,678Z" fill="#ffd9a8" stroke="#ffd9a8" stroke-width="1.51"/><path d="M1699,-70L1479,83L1727,147Z" fill="#f8a57b" stroke="#f8a57b" stroke-width="1.51"/><path d="M1523,338L1701,359L1727,147Z" fill="#fec39c" stroke="#fec39c" stroke-width="1.51"/><path d="M1479,83L1523,338L1727,147Z" fill="#fcb994" stroke="#fcb994" stroke-width="1.51"/><path d="M1456,564L1504,794L1724,678Z" fill="#ffe1b9" stroke="#ffe1b9" stroke-width="1.51"/><path d="M1555,1062L1638,1067L1680,901Z" fill="#ffcb88" stroke="#ffcb88" stroke-width="1.51"/><path d="M1517,903L1555,1062L1680,901Z" fill="#ffcf93" stroke="#ffcf93" stroke-width="1.51"/><path d="M1638,1067L1555,1062L1680,1285Z" fill="#fec476" stroke="#fec476" stroke-width="1.51"/><path d="M1555,1062L1524,1312L1680,1285Z" fill="#fec16e" stroke="#fec16e" stroke-width="1.51"/><path d="M1523,338L1592,441L1701,359Z" fill="#ffd2af" stroke="#ffd2af" stroke-width="1.51"/><path d="M1454,-54L1479,83L1633,-105Z" fill="#f69f79" stroke="#f69f79" stroke-width="1.51"/><path d="M1517,903L1680,901L1687,804Z" fill="#ffd39a" stroke="#ffd39a" stroke-width="1.51"/><path d="M1504,794L1517,903L1687,804Z" fill="#ffd7a3" stroke="#ffd7a3" stroke-width="1.51"/><path d="M1573,-172L1454,-54L1633,-105Z" fill="#f3926a" stroke="#f3926a" stroke-width="1.51"/><path d="M1479,83L1361,222L1523,338Z" fill="#fdc1a2" stroke="#fdc1a2" stroke-width="1.51"/><path d="M1361,1187L1524,1312L1555,1062Z" fill="#fec67c" stroke="#fec67c" stroke-width="1.51"/><path d="M1240,-208L1358,-98L1573,-172Z" fill="#f3916f" stroke="#f3916f" stroke-width="1.51"/><path d="M1523,338L1462,450L1592,441Z" fill="#ffd8ba" stroke="#ffd8ba" stroke-width="1.51"/><path d="M1462,450L1456,564L1592,441Z" fill="#ffe3c8" stroke="#ffe3c8" stroke-width="1.51"/><path d="M1358,-98L1454,-54L1573,-172Z" fill="#f49571" stroke="#f49571" stroke-width="1.51"/><path d="M1456,564L1346,622L1504,794Z" fill="#ffe6c6" stroke="#ffe6c6" stroke-width="1.51"/><path d="M1281,957L1294,1080L1517,903Z" fill="#ffd6a1" stroke="#ffd6a1" stroke-width="1.51"/><path d="M1517,903L1294,1080L1555,1062Z" fill="#ffd195" stroke="#ffd195" stroke-width="1.51"/><path d="M1294,1080L1361,1187L1555,1062Z" fill="#ffcd8d" stroke="#ffcd8d" stroke-width="1.51"/><path d="M1346,622L1337,772L1504,794Z" fill="#ffe4c0" stroke="#ffe4c0" stroke-width="1.51"/><path d="M1504,794L1337,772L1517,903Z" fill="#ffdcaf" stroke="#ffdcaf" stroke-width="1.51"/><path d="M1361,1187L1166,1264L1524,1312Z" fill="#ffc77e" stroke="#ffc77e" stroke-width="1.51"/><path d="M1304,281L1462,450L1523,338Z" fill="#ffd5ba" stroke="#ffd5ba" stroke-width="1.51"/><path d="M1361,222L1304,281L1523,338Z" fill="#feccb1" stroke="#feccb1" stroke-width="1.51"/><path d="M1337,772L1281,957L1517,903Z" fill="#ffdbae" stroke="#ffdbae" stroke-width="1.51"/><path d="M1454,-54L1342,52L1479,83Z" fill="#f9a988" stroke="#f9a988" stroke-width="1.51"/><path d="M1344,512L1456,564L1462,450Z" fill="#ffead3" stroke="#ffead3" stroke-width="1.51"/><path d="M1342,52L1361,222L1479,83Z" fill="#fbb798" stroke="#fbb798" stroke-width="1.51"/><path d="M1304,281L1344,512L1462,450Z" fill="#ffdfc8" stroke="#ffdfc8" stroke-width="1.51"/><path d="M1358,-98L1342,52L1454,-54Z" fill="#f7a382" stroke="#f7a382" stroke-width="1.51"/><path d="M1344,512L1346,622L1456,564Z" fill="#ffeed7" stroke="#ffeed7" stroke-width="1.51"/><path d="M766,-141L1058,-108L1240,-208Z" fill="#f89f8d" stroke="#f89f8d" stroke-width="1.51"/><path d="M1249,939L1281,957L1337,772Z" fill="#ffdeb3" stroke="#ffdeb3" stroke-width="1.51"/><path d="M1304,281L1241,290L1344,512Z" fill="#ffdbc6" stroke="#ffdbc6" stroke-width="1.51"/><path d="M1241,290L1222,532L1344,512Z" fill="#ffe6d5" stroke="#ffe6d5" stroke-width="1.51"/><path d="M1119,753L1337,772L1346,622Z" fill="#ffe9cd" stroke="#ffe9cd" stroke-width="1.51"/><path d="M1344,512L1222,532L1346,622Z" fill="#fff1df" stroke="#fff1df" stroke-width="1.51"/><path d="M1244,-39L1342,52L1358,-98Z" fill="#f8a689" stroke="#f8a689" stroke-width="1.51"/><path d="M1240,-208L1244,-39L1358,-98Z" fill="#f69b7e" stroke="#f69b7e" stroke-width="1.51"/><path d="M1342,52L1172,227L1361,222Z" fill="#fdc0a8" stroke="#fdc0a8" stroke-width="1.51"/><path d="M1172,227L1304,281L1361,222Z" fill="#fecbb5" stroke="#fecbb5" stroke-width="1.51"/><path d="M1294,1080L1198,1140L1361,1187Z" fill="#ffd093" stroke="#ffd093" stroke-width="1.51"/><path d="M1198,1140L1166,1264L1361,1187Z" fill="#ffce8f" stroke="#ffce8f" stroke-width="1.51"/><path d="M1172,227L1241,290L1304,281Z" fill="#ffd0bb" stroke="#ffd0bb" stroke-width="1.51"/><path d="M1119,753L1249,939L1337,772Z" fill="#ffe4c1" stroke="#ffe4c1" stroke-width="1.51"/><path d="M1244,-39L1172,227L1342,52Z" fill="#fbb69e" stroke="#fbb69e" stroke-width="1.51"/><path d="M1222,532L1164,546L1346,622Z" fill="#fff3e3" stroke="#fff3e3" stroke-width="1.51"/><path d="M1164,546L1119,753L1346,622Z" fill="#ffefdc" stroke="#ffefdc" stroke-width="1.51"/><path d="M1035,446L1222,532L1241,290Z" fill="#ffe8db" stroke="#ffe8db" stroke-width="1.51"/><path d="M1024,83L1172,227L1244,-39Z" fill="#fcbca8" stroke="#fcbca8" stroke-width="1.51"/><path d="M1249,939L1113,1070L1294,1080Z" fill="#ffd9a7" stroke="#ffd9a7" stroke-width="1.51"/><path d="M1281,957L1249,939L1294,1080Z" fill="#ffd9a7" stroke="#ffd9a7" stroke-width="1.51"/><path d="M1035,446L1164,546L1222,532Z" fill="#fff4ea" stroke="#fff4ea" stroke-width="1.51"/><path d="M1113,1070L1198,1140L1294,1080Z" fill="#ffd5a0" stroke="#ffd5a0" stroke-width="1.51"/><path d="M1052,238L1035,446L1172,227Z" fill="#ffdbce" stroke="#ffdbce" stroke-width="1.51"/><path d="M1172,227L1035,446L1241,290Z" fill="#ffdbcc" stroke="#ffdbcc" stroke-width="1.51"/><path d="M1058,-108L1024,83L1244,-39Z" fill="#faae9b" stroke="#faae9b" stroke-width="1.51"/><path d="M1240,-208L1058,-108L1244,-39Z" fill="#f79f86" stroke="#f79f86" stroke-width="1.51"/><path d="M1119,753L1038,909L1249,939Z" fill="#ffe5c3" stroke="#ffe5c3" stroke-width="1.51"/><path d="M1038,909L1113,1070L1249,939Z" fill="#ffdfb5" stroke="#ffdfb5" stroke-width="1.51"/><path d="M1102,547L1119,753L1164,546Z" fill="#fff4e6" stroke="#fff4e6" stroke-width="1.51"/><path d="M1035,446L1102,547L1164,546Z" fill="#fff6ee" stroke="#fff6ee" stroke-width="1.51"/><path d="M1113,1222L1166,1264L1198,1140Z" fill="#ffd194" stroke="#ffd194" stroke-width="1.51"/><path d="M1113,1222L894,1270L1166,1264Z" fill="#ffd297" stroke="#ffd297" stroke-width="1.51"/><path d="M1024,83L1052,238L1172,227Z" fill="#fecbbc" stroke="#fecbbc" stroke-width="1.51"/><path d="M1113,1070L1113,1222L1198,1140Z" fill="#ffd59e" stroke="#ffd59e" stroke-width="1.51"/><path d="M1102,547L917,691L1119,753Z" fill="#fff4e6" stroke="#fff4e6" stroke-width="1.51"/><path d="M964,-50L1024,83L1058,-108Z" fill="#fbb1a1" stroke="#fbb1a1" stroke-width="1.51"/><path d="M1113,1070L846,1111L1113,1222Z" fill="#ffdaa9" stroke="#ffdaa9" stroke-width="1.51"/><path d="M846,1111L894,1270L1113,1222Z" fill="#ffd7a5" stroke="#ffd7a5" stroke-width="1.51"/><path d="M917,691L971,838L1119,753Z" fill="#fff0dd" stroke="#fff0dd" stroke-width="1.51"/><path d="M971,838L1038,909L1119,753Z" fill="#ffead0" stroke="#ffead0" stroke-width="1.51"/><path d="M766,-141L806,-96L1058,-108Z" fill="#f8a090" stroke="#f8a090" stroke-width="1.51"/><path d="M1038,909L846,1111L1113,1070Z" fill="#ffe1b9" stroke="#ffe1b9" stroke-width="1.51"/><path d="M957,449L1035,446L1052,238Z" fill="#ffe7e0" stroke="#ffe7e0" stroke-width="1.51"/><path d="M1035,446L957,449L1102,547Z" fill="#fff5ef" stroke="#fff5ef" stroke-width="1.51"/><path d="M957,449L917,691L1102,547Z" fill="#fffdf9" stroke="#fffdf9" stroke-width="1.51"/><path d="M917,691L914,792L971,838Z" fill="#ffefdc" stroke="#ffefdc" stroke-width="1.51"/><path d="M964,-50L953,-45L1024,83Z" fill="#fcb5a7" stroke="#fcb5a7" stroke-width="1.51"/><path d="M895,875L846,1111L1038,909Z" fill="#ffe3c2" stroke="#ffe3c2" stroke-width="1.51"/><path d="M1024,83L957,91L1052,238Z" fill="#ffc7ba" stroke="#ffc7ba" stroke-width="1.51"/><path d="M843,283L957,449L1052,238Z" fill="#ffe1db" stroke="#ffe1db" stroke-width="1.51"/><path d="M806,-96L964,-50L1058,-108Z" fill="#fba99b" stroke="#fba99b" stroke-width="1.51"/><path d="M953,-45L957,91L1024,83Z" fill="#fdbcaf" stroke="#fdbcaf" stroke-width="1.51"/><path d="M957,91L843,283L1052,238Z" fill="#ffd1c8" stroke="#ffd1c8" stroke-width="1.51"/><path d="M971,838L895,875L1038,909Z" fill="#ffebd1" stroke="#ffebd1" stroke-width="1.51"/><path d="M806,-96L953,-45L964,-50Z" fill="#faa99b" stroke="#faa99b" stroke-width="1.51"/><path d="M-102,-183L132,-146L414,-189Z" fill="#e35648" stroke="#e35648" stroke-width="1.51"/><path d="M92,1272L15,1309L537,1250Z" fill="#f59655" stroke="#f59655" stroke-width="1.51"/><path d="M726,490L917,691L957,449Z" fill="#fff7f5" stroke="#fff7f5" stroke-width="1.51"/><path d="M953,-45L806,-96L957,91Z" fill="#fcafa2" stroke="#fcafa2" stroke-width="1.51"/><path d="M761,251L843,283L957,91Z" fill="#ffcabf" stroke="#ffcabf" stroke-width="1.51"/><path d="M914,792L895,875L971,838Z" fill="#ffead3" stroke="#ffead3" stroke-width="1.51"/><path d="M806,-96L679,52L957,91Z" fill="#fbac9e" stroke="#fbac9e" stroke-width="1.51"/><path d="M843,283L726,490L957,449Z" fill="#ffe3dd" stroke="#ffe3dd" stroke-width="1.51"/><path d="M679,52L761,251L957,91Z" fill="#fdbaae" stroke="#fdbaae" stroke-width="1.51"/><path d="M726,490L689,649L917,691Z" fill="#ffece3" stroke="#ffece3" stroke-width="1.51"/><path d="M656,871L647,1080L846,1111Z" fill="#ffcea6" stroke="#ffcea6" stroke-width="1.51"/><path d="M846,1111L759,1266L894,1270Z" fill="#ffcd97" stroke="#ffcd97" stroke-width="1.51"/><path d="M656,871L846,1111L895,875Z" fill="#ffd9b7" stroke="#ffd9b7" stroke-width="1.51"/><path d="M705,765L914,792L917,691Z" fill="#ffe9d7" stroke="#ffe9d7" stroke-width="1.51"/><path d="M689,649L705,765L917,691Z" fill="#ffe6d6" stroke="#ffe6d6" stroke-width="1.51"/><path d="M705,765L895,875L914,792Z" fill="#ffe4ce" stroke="#ffe4ce" stroke-width="1.51"/><path d="M679,52L662,87L761,251Z" fill="#fcb2a5" stroke="#fcb2a5" stroke-width="1.51"/><path d="M705,765L656,871L895,875Z" fill="#ffdcc2" stroke="#ffdcc2" stroke-width="1.51"/><path d="M761,251L726,490L843,283Z" fill="#ffd5cd" stroke="#ffd5cd" stroke-width="1.51"/><path d="M647,1080L650,1086L846,1111Z" fill="#ffca9d" stroke="#ffca9d" stroke-width="1.51"/><path d="M650,1086L759,1266L846,1111Z" fill="#ffca97" stroke="#ffca97" stroke-width="1.51"/><path d="M639,246L726,490L761,251Z" fill="#ffcec4" stroke="#ffcec4" stroke-width="1.51"/><path d="M414,-189L507,-97L766,-141Z" fill="#f18170" stroke="#f18170" stroke-width="1.51"/><path d="M624,22L679,52L766,-141Z" fill="#f79c8d" stroke="#f79c8d" stroke-width="1.51"/><path d="M766,-141L679,52L806,-96Z" fill="#f79c8d" stroke="#f79c8d" stroke-width="1.51"/><path d="M639,246L491,361L726,490Z" fill="#ffcbc1" stroke="#ffcbc1" stroke-width="1.51"/><path d="M491,361L544,501L726,490Z" fill="#ffd4cb" stroke="#ffd4cb" stroke-width="1.51"/><path d="M650,1086L537,1250L759,1266Z" fill="#ffbf88" stroke="#ffbf88" stroke-width="1.51"/><path d="M662,87L639,246L761,251Z" fill="#fdbaad" stroke="#fdbaad" stroke-width="1.51"/><path d="M507,-97L624,22L766,-141Z" fill="#f59181" stroke="#f59181" stroke-width="1.51"/><path d="M568,884L647,1080L656,871Z" fill="#ffcba7" stroke="#ffcba7" stroke-width="1.51"/><path d="M544,501L689,649L726,490Z" fill="#ffe4df" stroke="#ffe4df" stroke-width="1.51"/><path d="M689,649L506,745L705,765Z" fill="#ffd9c6" stroke="#ffd9c6" stroke-width="1.51"/><path d="M506,745L656,871L705,765Z" fill="#ffd4bb" stroke="#ffd4bb" stroke-width="1.51"/><path d="M506,745L568,884L656,871Z" fill="#ffcdb1" stroke="#ffcdb1" stroke-width="1.51"/><path d="M556,101L639,246L662,87Z" fill="#fbad9f" stroke="#fbad9f" stroke-width="1.51"/><path d="M544,501L507,652L689,649Z" fill="#ffdcd1" stroke="#ffdcd1" stroke-width="1.51"/><path d="M507,652L506,745L689,649Z" fill="#ffd6c4" stroke="#ffd6c4" stroke-width="1.51"/><path d="M624,22L662,87L679,52Z" fill="#f9a495" stroke="#f9a495" stroke-width="1.51"/><path d="M568,884L429,1051L647,1080Z" fill="#fec298" stroke="#fec298" stroke-width="1.51"/><path d="M467,1163L537,1250L650,1086Z" fill="#feb883" stroke="#feb883" stroke-width="1.51"/><path d="M624,22L556,101L662,87Z" fill="#f9a293" stroke="#f9a293" stroke-width="1.51"/><path d="M647,1080L467,1163L650,1086Z" fill="#ffbe8e" stroke="#ffbe8e" stroke-width="1.51"/><path d="M429,1051L467,1163L647,1080Z" fill="#feb988" stroke="#feb988" stroke-width="1.51"/><path d="M261,1175L92,1272L537,1250Z" fill="#f89f62" stroke="#f89f62" stroke-width="1.51"/><path d="M392,149L491,361L556,101Z" fill="#fba99b" stroke="#fba99b" stroke-width="1.51"/><path d="M556,101L491,361L639,246Z" fill="#fdb5a7" stroke="#fdb5a7" stroke-width="1.51"/><path d="M468,7L556,101L624,22Z" fill="#f7998a" stroke="#f7998a" stroke-width="1.51"/><path d="M507,-97L468,7L624,22Z" fill="#f58f7e" stroke="#f58f7e" stroke-width="1.51"/><path d="M420,572L507,652L544,501Z" fill="#ffd6cb" stroke="#ffd6cb" stroke-width="1.51"/><path d="M448,497L420,572L544,501Z" fill="#ffd3cc" stroke="#ffd3cc" stroke-width="1.51"/><path d="M491,361L448,497L544,501Z" fill="#ffccc3" stroke="#ffccc3" stroke-width="1.51"/><path d="M449,832L408,926L568,884Z" fill="#fdc2a2" stroke="#fdc2a2" stroke-width="1.51"/><path d="M408,926L429,1051L568,884Z" fill="#fdbe97" stroke="#fdbe97" stroke-width="1.51"/><path d="M506,745L449,832L568,884Z" fill="#fec9ad" stroke="#fec9ad" stroke-width="1.51"/><path d="M468,7L392,149L556,101Z" fill="#f79989" stroke="#f79989" stroke-width="1.51"/><path d="M392,149L316,237L491,361Z" fill="#fba99a" stroke="#fba99a" stroke-width="1.51"/><path d="M467,1163L261,1175L537,1250Z" fill="#fbab73" stroke="#fbab73" stroke-width="1.51"/><path d="M299,638L449,832L506,745Z" fill="#fdc6af" stroke="#fdc6af" stroke-width="1.51"/><path d="M299,638L506,745L507,652Z" fill="#fecbb8" stroke="#fecbb8" stroke-width="1.51"/><path d="M420,572L299,638L507,652Z" fill="#ffccbd" stroke="#ffccbd" stroke-width="1.51"/><path d="M320,-28L468,7L507,-97Z" fill="#f28473" stroke="#f28473" stroke-width="1.51"/><path d="M414,-189L320,-28L507,-97Z" fill="#ef7968" stroke="#ef7968" stroke-width="1.51"/><path d="M325,472L448,497L491,361Z" fill="#fec5ba" stroke="#fec5ba" stroke-width="1.51"/><path d="M316,237L325,472L491,361Z" fill="#fcb6a8" stroke="#fcb6a8" stroke-width="1.51"/><path d="M299,638L235,774L449,832Z" fill="#fcbda4" stroke="#fcbda4" stroke-width="1.51"/><path d="M429,1051L261,1175L467,1163Z" fill="#fbad78" stroke="#fbad78" stroke-width="1.51"/><path d="M320,-28L392,149L468,7Z" fill="#f48c7b" stroke="#f48c7b" stroke-width="1.51"/><path d="M325,472L420,572L448,497Z" fill="#ffccc2" stroke="#ffccc2" stroke-width="1.51"/><path d="M235,774L408,926L449,832Z" fill="#fcbb9c" stroke="#fcbb9c" stroke-width="1.51"/><path d="M311,201L316,237L392,149Z" fill="#f89c8c" stroke="#f89c8c" stroke-width="1.51"/><path d="M235,774L253,929L408,926Z" fill="#fbb491" stroke="#fbb491" stroke-width="1.51"/><path d="M132,-146L256,-98L414,-189Z" fill="#e86655" stroke="#e86655" stroke-width="1.51"/><path d="M256,-98L320,-28L414,-189Z" fill="#ec7160" stroke="#ec7160" stroke-width="1.51"/><path d="M226,1099L261,1175L429,1051Z" fill="#faa773" stroke="#faa773" stroke-width="1.51"/><path d="M408,926L253,929L429,1051Z" fill="#fbb48b" stroke="#fbb48b" stroke-width="1.51"/><path d="M253,929L226,1099L429,1051Z" fill="#fbab7e" stroke="#fbab7e" stroke-width="1.51"/><path d="M325,472L299,638L420,572Z" fill="#ffcbbf" stroke="#ffcbbf" stroke-width="1.51"/><path d="M316,237L182,312L325,472Z" fill="#fbaa9c" stroke="#fbaa9c" stroke-width="1.51"/><path d="M320,-28L311,201L392,149Z" fill="#f59080" stroke="#f59080" stroke-width="1.51"/><path d="M256,-98L57,-18L320,-28Z" fill="#ec6f5e" stroke="#ec6f5e" stroke-width="1.51"/><path d="M57,-18L138,171L320,-28Z" fill="#ef7867" stroke="#ef7867" stroke-width="1.51"/><path d="M138,171L311,201L320,-28Z" fill="#f48a79" stroke="#f48a79" stroke-width="1.51"/><path d="M182,312L97,487L325,472Z" fill="#fbb0a2" stroke="#fbb0a2" stroke-width="1.51"/><path d="M153,627L299,638L325,472Z" fill="#fec1b4" stroke="#fec1b4" stroke-width="1.51"/><path d="M97,487L153,627L325,472Z" fill="#febdb1" stroke="#febdb1" stroke-width="1.51"/><path d="M311,201L182,312L316,237Z" fill="#f89e8e" stroke="#f89e8e" stroke-width="1.51"/><path d="M146,721L235,774L299,638Z" fill="#fbb8a0" stroke="#fbb8a0" stroke-width="1.51"/><path d="M138,171L182,312L311,201Z" fill="#f79686" stroke="#f79686" stroke-width="1.51"/><path d="M153,627L146,721L299,638Z" fill="#fcb8a4" stroke="#fcb8a4" stroke-width="1.51"/><path d="M39,1061L226,1099L253,929Z" fill="#f8a072" stroke="#f8a072" stroke-width="1.51"/><path d="M235,774L68,852L253,929Z" fill="#f9ab8a" stroke="#f9ab8a" stroke-width="1.51"/><path d="M132,-146L57,-18L256,-98Z" fill="#e86353" stroke="#e86353" stroke-width="1.51"/><path d="M226,1099L92,1272L261,1175Z" fill="#f69a60" stroke="#f69a60" stroke-width="1.51"/><path d="M68,852L39,1061L253,929Z" fill="#f7a177" stroke="#f7a177" stroke-width="1.51"/><path d="M39,1061L92,1272L226,1099Z" fill="#f5955e" stroke="#f5955e" stroke-width="1.51"/><path d="M146,721L68,852L235,774Z" fill="#f9ad8f" stroke="#f9ad8f" stroke-width="1.51"/><path d="M138,171L14,274L182,312Z" fill="#f59080" stroke="#f59080" stroke-width="1.51"/><path d="M14,274L97,487L182,312Z" fill="#f89e8f" stroke="#f89e8f" stroke-width="1.51"/><path d="M-56,973L39,1061L68,852Z" fill="#f5976c" stroke="#f5976c" stroke-width="1.51"/><path d="M57,-18L-57,104L138,171Z" fill="#ed7362" stroke="#ed7362" stroke-width="1.51"/><path d="M1,786L68,852L146,721Z" fill="#f8a687" stroke="#f8a687" stroke-width="1.51"/><path d="M-5,580L1,786L146,721Z" fill="#f9a991" stroke="#f9a991" stroke-width="1.51"/><path d="M-5,580L146,721L153,627Z" fill="#fbb19d" stroke="#fbb19d" stroke-width="1.51"/><path d="M97,487L-5,580L153,627Z" fill="#fcb4a5" stroke="#fcb4a5" stroke-width="1.51"/><path d="M39,1061L-16,1070L92,1272Z" fill="#f38f58" stroke="#f38f58" stroke-width="1.51"/><path d="M-57,104L14,274L138,171Z" fill="#f0806e" stroke="#f0806e" stroke-width="1.51"/><path d="M14,274L-109,417L97,487Z" fill="#f79a8b" stroke="#f79a8b" stroke-width="1.51"/><path d="M-102,-183L57,-18L132,-146Z" fill="#e25345" stroke="#e25345" stroke-width="1.51"/><path d="M-102,-183L-43,-1L57,-18Z" fill="#e45546" stroke="#e45546" stroke-width="1.51"/><path d="M-43,-1L-57,104L57,-18Z" fill="#e96555" stroke="#e96555" stroke-width="1.51"/><path d="M-16,1070L15,1309L92,1272Z" fill="#f18a4c" stroke="#f18a4c" stroke-width="1.51"/><path d="M-109,417L-5,580L97,487Z" fill="#faa899" stroke="#faa899" stroke-width="1.51"/><path d="M-56,973L-16,1070L39,1061Z" fill="#f39160" stroke="#f39160" stroke-width="1.51"/><path d="M1,786L-56,973L68,852Z" fill="#f69b77" stroke="#f69b77" stroke-width="1.51"/><path d="M-196,1112L-186,1296L-16,1070Z" fill="#ed7f45" stroke="#ed7f45" stroke-width="1.51"/><path d="M-16,1070L-186,1296L15,1309Z" fill="#ee8142" stroke="#ee8142" stroke-width="1.51"/><path d="M-160,833L-56,973L1,786Z" fill="#f49570" stroke="#f49570" stroke-width="1.51"/><path d="M-273,553L-160,833L-5,580Z" fill="#f69b84" stroke="#f69b84" stroke-width="1.51"/><path d="M-5,580L-160,833L1,786Z" fill="#f69e83" stroke="#f69e83" stroke-width="1.51"/><path d="M-217,354L-109,417L14,274Z" fill="#f38b7a" stroke="#f38b7a" stroke-width="1.51"/><path d="M-57,104L-255,199L14,274Z" fill="#ee7564" stroke="#ee7564" stroke-width="1.51"/><path d="M-255,199L-217,354L14,274Z" fill="#f07d6b" stroke="#f07d6b" stroke-width="1.51"/><path d="M-226,502L-273,553L-5,580Z" fill="#f99f90" stroke="#f99f90" stroke-width="1.51"/><path d="M-109,417L-226,502L-5,580Z" fill="#f89f90" stroke="#f89f90" stroke-width="1.51"/><path d="M-56,973L-196,1112L-16,1070Z" fill="#f18957" stroke="#f18957" stroke-width="1.51"/><path d="M-263,59L-57,104L-43,-1Z" fill="#e65f50" stroke="#e65f50" stroke-width="1.51"/><path d="M-102,-183L-263,59L-43,-1Z" fill="#e14f41" stroke="#e14f41" stroke-width="1.51"/><path d="M-253,-199L-263,59L-102,-183Z" fill="#db3a32" stroke="#db3a32" stroke-width="1.51"/><path d="M-263,59L-255,199L-57,104Z" fill="#e76352" stroke="#e76352" stroke-width="1.51"/><path d="M-160,833L-270,990L-56,973Z" fill="#f18a60" stroke="#f18a60" stroke-width="1.51"/><path d="M-270,990L-196,1112L-56,973Z" fill="#ef8353" stroke="#ef8353" stroke-width="1.51"/><path d="M-217,354L-226,502L-109,417Z" fill="#f48f7e" stroke="#f48f7e" stroke-width="1.51"/><path d="M-273,553L-270,990L-160,833Z" fill="#f18c6b" stroke="#f18c6b" stroke-width="1.51"/><path d="M-196,1112L-270,990L-186,1296Z" fill="#ec7940" stroke="#ec7940" stroke-width="1.51"/><path d="M-273,553L-226,502L-217,354Z" fill="#f49080" stroke="#f49080" stroke-width="1.51"/><path d="M-255,199L-273,553L-217,354Z" fill="#f18270" stroke="#f18270" stroke-width="1.51"/><path d="M-263,59L-273,553L-255,199Z" fill="#ec7261" stroke="#ec7261" stroke-width="1.51"/></svg>